<mxfile host="app.diagrams.net" agent="Mozilla/5.0 (Macintosh; Intel Mac OS X 10_15_7) AppleWebKit/537.36 (KHTML, like Gecko) Chrome/141.0.0.0 Safari/537.36" version="28.1.0" pages="2">
  <diagram name="第 1 页" id="ez0tuMwPaUk3fe16kJSy">
    <mxGraphModel dx="858" dy="487" grid="1" gridSize="10" guides="1" tooltips="1" connect="1" arrows="1" fold="1" page="1" pageScale="1" pageWidth="827" pageHeight="1169" math="0" shadow="0">
      <root>
        <mxCell id="0" />
        <mxCell id="1" parent="0" />
        <mxCell id="fDkPUPrDeX1091wnxDDi-9" style="edgeStyle=orthogonalEdgeStyle;rounded=0;orthogonalLoop=1;jettySize=auto;html=1;exitX=1;exitY=0.5;exitDx=0;exitDy=0;entryX=0;entryY=0.5;entryDx=0;entryDy=0;" parent="1" source="fDkPUPrDeX1091wnxDDi-1" target="fDkPUPrDeX1091wnxDDi-3" edge="1">
          <mxGeometry relative="1" as="geometry" />
        </mxCell>
        <mxCell id="fDkPUPrDeX1091wnxDDi-1" value="Studio One" style="rounded=0;whiteSpace=wrap;html=1;" parent="1" vertex="1">
          <mxGeometry x="160" y="170" width="160" height="70" as="geometry" />
        </mxCell>
        <mxCell id="fDkPUPrDeX1091wnxDDi-28" style="edgeStyle=orthogonalEdgeStyle;rounded=0;orthogonalLoop=1;jettySize=auto;html=1;entryX=0;entryY=0.5;entryDx=0;entryDy=0;" parent="1" source="fDkPUPrDeX1091wnxDDi-3" target="fDkPUPrDeX1091wnxDDi-27" edge="1">
          <mxGeometry relative="1" as="geometry" />
        </mxCell>
        <mxCell id="fDkPUPrDeX1091wnxDDi-3" value="LoopBack" style="rounded=0;whiteSpace=wrap;html=1;" parent="1" vertex="1">
          <mxGeometry x="450" y="170" width="160" height="70" as="geometry" />
        </mxCell>
        <mxCell id="fDkPUPrDeX1091wnxDDi-6" value="Loopback 是一款 macOS 上的虚拟音频设备创建软件。它可以让你将不同的应用程序的音频输出混合在一起，并将混合后的音频作为单个输入发送到另一个应用程序。 简单来说，它就像一个虚拟的音频调音台，可以灵活地路由音频信号。&#xa;&#xa;" style="text;whiteSpace=wrap;" parent="1" vertex="1">
          <mxGeometry x="20" y="590" width="560" height="70" as="geometry" />
        </mxCell>
        <mxCell id="fDkPUPrDeX1091wnxDDi-7" value="Studio One 是一款数字音频工作站 (DAW)，用于录音、编辑、混音和母带制作。负责处理你的麦克风声音（人声），添加效果（混响、压缩等），以及播放背景音乐。 它就像你的“声音处理中心”。" style="text;whiteSpace=wrap;fontSize=13;" parent="1" vertex="1">
          <mxGeometry x="20" y="535" width="560" height="50" as="geometry" />
        </mxCell>
        <mxCell id="fDkPUPrDeX1091wnxDDi-8" style="edgeStyle=orthogonalEdgeStyle;rounded=0;orthogonalLoop=1;jettySize=auto;html=1;exitX=0.5;exitY=1;exitDx=0;exitDy=0;" parent="1" source="fDkPUPrDeX1091wnxDDi-1" target="fDkPUPrDeX1091wnxDDi-1" edge="1">
          <mxGeometry relative="1" as="geometry" />
        </mxCell>
        <mxCell id="fDkPUPrDeX1091wnxDDi-15" value="麦克风输入" style="rounded=1;whiteSpace=wrap;html=1;arcSize=40;fontColor=#000000;fillColor=#ffffc0;strokeColor=#ff0000;" parent="1" vertex="1">
          <mxGeometry x="130" y="70" width="120" height="40" as="geometry" />
        </mxCell>
        <mxCell id="fDkPUPrDeX1091wnxDDi-16" value="" style="edgeStyle=orthogonalEdgeStyle;html=1;verticalAlign=bottom;endArrow=open;endSize=8;strokeColor=#ff0000;rounded=0;" parent="1" source="fDkPUPrDeX1091wnxDDi-15" edge="1">
          <mxGeometry relative="1" as="geometry">
            <mxPoint x="190" y="170" as="targetPoint" />
          </mxGeometry>
        </mxCell>
        <mxCell id="fDkPUPrDeX1091wnxDDi-19" value="连接到声卡的麦克风输入接口" style="text;whiteSpace=wrap;" parent="1" vertex="1">
          <mxGeometry x="10" y="40" width="190" height="40" as="geometry" />
        </mxCell>
        <mxCell id="fDkPUPrDeX1091wnxDDi-21" value="声卡: 通过 USB 连接到电脑，苹果是lighting口" style="text;whiteSpace=wrap;" parent="1" vertex="1">
          <mxGeometry x="10" y="20" width="300" height="40" as="geometry" />
        </mxCell>
        <mxCell id="fDkPUPrDeX1091wnxDDi-22" value="音频设备设置：&#xa;打开 Studio One，进入“选项” -&gt; “音频设置” -&gt; “音频设备”。&#xa;驱动程序: 选择 Synido ASIO 驱动程序（如果已安装）。&#xa;输入设备: 选择 Synido 声卡的麦克风输入接口。&#xa;输出设备: 选择 Synido 声卡的监听输出接口。(选ASIO会降低延迟)&#xa;采样率和缓冲区大小: 根据电脑性能和延迟要求进行调整。建议从 44.1kHz 或 48kHz 开始，缓冲区大小从 128 样本开始尝试。" style="text;whiteSpace=wrap;" parent="1" vertex="1">
          <mxGeometry x="130" y="250" width="560" height="120" as="geometry" />
        </mxCell>
        <mxCell id="fDkPUPrDeX1091wnxDDi-24" value="音轨设置：&#xa;人声音轨: 创建一个音频音轨，选择麦克风作为输入。&#xa;伴奏音轨: 创建一个音频音轨，导入伴奏文件（MP3、WAV 等）。&#xa;背景音乐音轨: 创建一个音频音轨，导入背景音乐文件（MP3、WAV 等）" style="text;whiteSpace=wrap;" parent="1" vertex="1">
          <mxGeometry x="130" y="370" width="420" height="80" as="geometry" />
        </mxCell>
        <mxCell id="fDkPUPrDeX1091wnxDDi-25" value="效果器设置：&#xa;人声音轨: 添加压缩器、EQ、混响等效果器，提升人声质量。&#xa;伴奏音轨: 添加 EQ 等效果器，调整伴奏音色。&#xa;主输出: 将所有音轨发送到主输出，并调整主输出的音量" style="text;whiteSpace=wrap;" parent="1" vertex="1">
          <mxGeometry x="130" y="450" width="360" height="80" as="geometry" />
        </mxCell>
        <mxCell id="fDkPUPrDeX1091wnxDDi-26" value="Loopback 虚拟输入设备:&#xa;在 Loopback 中创建一个虚拟输入设备（例如“直播输入”）。&#xa;将 Studio One 的主输出发送到这个虚拟输入设备。&#xa;Loopback 虚拟输出设备:&#xa;在 Loopback 中创建一个虚拟输出设备（例如“直播输出”）。&#xa;将直播软件（OBS、Streamlabs OBS 等）的音频输入设置为这个虚拟输出设备。&#xa;Loopback 混音器:&#xa;在 Loopback 混音器中，调整各个音轨的音量，确保人声、伴奏、背景音乐的比例合适。&#xa;可以添加一些效果器，例如均衡器、压缩器等，进一步优化音频效果。" style="text;whiteSpace=wrap;fontColor=light-dark(#d71919, #ededed);fontStyle=1" parent="1" vertex="1">
          <mxGeometry x="320" y="15" width="500" height="150" as="geometry" />
        </mxCell>
        <mxCell id="fDkPUPrDeX1091wnxDDi-27" value="直播软件" style="rounded=0;whiteSpace=wrap;html=1;" parent="1" vertex="1">
          <mxGeometry x="680" y="175" width="120" height="60" as="geometry" />
        </mxCell>
        <mxCell id="YvY0g-OzoP-tnaIa6x7b-1" value="" style="rounded=0;whiteSpace=wrap;html=1;" parent="1" vertex="1">
          <mxGeometry x="350" y="250" width="120" height="60" as="geometry" />
        </mxCell>
        <mxCell id="YvY0g-OzoP-tnaIa6x7b-35" value="" style="group" parent="1" vertex="1" connectable="0">
          <mxGeometry x="900" y="45" width="932" height="490" as="geometry" />
        </mxCell>
        <mxCell id="YvY0g-OzoP-tnaIa6x7b-3" value="" style="rounded=0;whiteSpace=wrap;html=1;dashed=1;dashPattern=8 8;" parent="YvY0g-OzoP-tnaIa6x7b-35" vertex="1">
          <mxGeometry x="357" y="80" width="270" height="290" as="geometry" />
        </mxCell>
        <mxCell id="YvY0g-OzoP-tnaIa6x7b-4" value="专业直播声卡" style="rounded=0;whiteSpace=wrap;html=1;" parent="YvY0g-OzoP-tnaIa6x7b-35" vertex="1">
          <mxGeometry x="432" y="100" width="120" height="60" as="geometry" />
        </mxCell>
        <mxCell id="YvY0g-OzoP-tnaIa6x7b-5" style="edgeStyle=orthogonalEdgeStyle;rounded=0;orthogonalLoop=1;jettySize=auto;html=1;exitX=0.5;exitY=0;exitDx=0;exitDy=0;entryX=0.5;entryY=1;entryDx=0;entryDy=0;" parent="YvY0g-OzoP-tnaIa6x7b-35" source="YvY0g-OzoP-tnaIa6x7b-7" target="YvY0g-OzoP-tnaIa6x7b-11" edge="1">
          <mxGeometry relative="1" as="geometry" />
        </mxCell>
        <mxCell id="YvY0g-OzoP-tnaIa6x7b-6" style="edgeStyle=orthogonalEdgeStyle;rounded=0;orthogonalLoop=1;jettySize=auto;html=1;exitX=0.5;exitY=1;exitDx=0;exitDy=0;" parent="YvY0g-OzoP-tnaIa6x7b-35" source="YvY0g-OzoP-tnaIa6x7b-7" target="YvY0g-OzoP-tnaIa6x7b-13" edge="1">
          <mxGeometry relative="1" as="geometry" />
        </mxCell>
        <mxCell id="YvY0g-OzoP-tnaIa6x7b-7" value="机架控制" style="rounded=0;whiteSpace=wrap;html=1;" parent="YvY0g-OzoP-tnaIa6x7b-35" vertex="1">
          <mxGeometry y="200" width="170" height="80" as="geometry" />
        </mxCell>
        <mxCell id="YvY0g-OzoP-tnaIa6x7b-8" value="Loopback 伴奏输入(网易云，k歌，酷狗)" style="rounded=0;whiteSpace=wrap;html=1;" parent="YvY0g-OzoP-tnaIa6x7b-35" vertex="1">
          <mxGeometry x="432" y="180" width="120" height="60" as="geometry" />
        </mxCell>
        <mxCell id="YvY0g-OzoP-tnaIa6x7b-9" value="loopback-Studio one输出(在机架控制的音频设置中使用聚合设备后的输出,取消下面勾选)" style="rounded=0;whiteSpace=wrap;html=1;" parent="YvY0g-OzoP-tnaIa6x7b-35" vertex="1">
          <mxGeometry x="432" y="250" width="120" height="80" as="geometry" />
        </mxCell>
        <mxCell id="YvY0g-OzoP-tnaIa6x7b-10" value="MIDI聚合音频设备" style="text;html=1;align=center;verticalAlign=middle;resizable=0;points=[];autosize=1;strokeColor=none;fillColor=none;" parent="YvY0g-OzoP-tnaIa6x7b-35" vertex="1">
          <mxGeometry x="412" y="40" width="120" height="30" as="geometry" />
        </mxCell>
        <mxCell id="YvY0g-OzoP-tnaIa6x7b-11" value="音频设置" style="rounded=0;whiteSpace=wrap;html=1;" parent="YvY0g-OzoP-tnaIa6x7b-35" vertex="1">
          <mxGeometry x="25" y="60" width="120" height="60" as="geometry" />
        </mxCell>
        <mxCell id="YvY0g-OzoP-tnaIa6x7b-12" value="录制设备：MIDI聚合设备&lt;div&gt;回放设备：MIDI聚合设备&lt;/div&gt;&lt;div&gt;采样频率和缓冲区大小:128&lt;/div&gt;" style="text;html=1;align=center;verticalAlign=middle;resizable=0;points=[];autosize=1;strokeColor=none;fillColor=none;" parent="YvY0g-OzoP-tnaIa6x7b-35" vertex="1">
          <mxGeometry width="170" height="60" as="geometry" />
        </mxCell>
        <mxCell id="YvY0g-OzoP-tnaIa6x7b-13" value="音频I/O" style="whiteSpace=wrap;html=1;" parent="YvY0g-OzoP-tnaIa6x7b-35" vertex="1">
          <mxGeometry x="25" y="340" width="120" height="60" as="geometry" />
        </mxCell>
        <mxCell id="YvY0g-OzoP-tnaIa6x7b-14" value="输入：麦克风总输入&lt;div&gt;&lt;br&gt;&lt;/div&gt;" style="text;html=1;align=center;verticalAlign=middle;resizable=0;points=[];autosize=1;strokeColor=none;fillColor=none;" parent="YvY0g-OzoP-tnaIa6x7b-35" vertex="1">
          <mxGeometry x="132" y="277" width="130" height="40" as="geometry" />
        </mxCell>
        <mxCell id="YvY0g-OzoP-tnaIa6x7b-15" value="1" style="text;html=1;align=center;verticalAlign=middle;resizable=0;points=[];autosize=1;strokeColor=none;fillColor=none;" parent="YvY0g-OzoP-tnaIa6x7b-35" vertex="1">
          <mxGeometry x="307" y="112" width="30" height="30" as="geometry" />
        </mxCell>
        <mxCell id="YvY0g-OzoP-tnaIa6x7b-16" value="2" style="text;html=1;align=center;verticalAlign=middle;resizable=0;points=[];autosize=1;strokeColor=none;fillColor=none;" parent="YvY0g-OzoP-tnaIa6x7b-35" vertex="1">
          <mxGeometry x="307" y="142" width="30" height="30" as="geometry" />
        </mxCell>
        <mxCell id="YvY0g-OzoP-tnaIa6x7b-17" style="edgeStyle=orthogonalEdgeStyle;rounded=0;orthogonalLoop=1;jettySize=auto;html=1;entryX=0.5;entryY=0;entryDx=0;entryDy=0;" parent="YvY0g-OzoP-tnaIa6x7b-35" source="YvY0g-OzoP-tnaIa6x7b-18" target="YvY0g-OzoP-tnaIa6x7b-24" edge="1">
          <mxGeometry relative="1" as="geometry" />
        </mxCell>
        <mxCell id="YvY0g-OzoP-tnaIa6x7b-18" value="3" style="text;html=1;align=center;verticalAlign=middle;resizable=0;points=[];autosize=1;strokeColor=none;fillColor=none;" parent="YvY0g-OzoP-tnaIa6x7b-35" vertex="1">
          <mxGeometry x="307" y="182" width="30" height="30" as="geometry" />
        </mxCell>
        <mxCell id="YvY0g-OzoP-tnaIa6x7b-19" value="4" style="text;html=1;align=center;verticalAlign=middle;resizable=0;points=[];autosize=1;strokeColor=none;fillColor=none;" parent="YvY0g-OzoP-tnaIa6x7b-35" vertex="1">
          <mxGeometry x="307" y="212" width="30" height="30" as="geometry" />
        </mxCell>
        <mxCell id="YvY0g-OzoP-tnaIa6x7b-20" value="5" style="text;html=1;align=center;verticalAlign=middle;resizable=0;points=[];autosize=1;strokeColor=none;fillColor=none;" parent="YvY0g-OzoP-tnaIa6x7b-35" vertex="1">
          <mxGeometry x="307" y="247" width="30" height="30" as="geometry" />
        </mxCell>
        <mxCell id="YvY0g-OzoP-tnaIa6x7b-21" value="6" style="text;html=1;align=center;verticalAlign=middle;resizable=0;points=[];autosize=1;strokeColor=none;fillColor=none;" parent="YvY0g-OzoP-tnaIa6x7b-35" vertex="1">
          <mxGeometry x="307" y="282" width="30" height="30" as="geometry" />
        </mxCell>
        <mxCell id="YvY0g-OzoP-tnaIa6x7b-22" value="1" style="text;html=1;align=center;verticalAlign=middle;resizable=0;points=[];autosize=1;strokeColor=none;fillColor=none;" parent="YvY0g-OzoP-tnaIa6x7b-35" vertex="1">
          <mxGeometry x="637" y="100" width="30" height="30" as="geometry" />
        </mxCell>
        <mxCell id="YvY0g-OzoP-tnaIa6x7b-23" value="2" style="text;html=1;align=center;verticalAlign=middle;resizable=0;points=[];autosize=1;strokeColor=none;fillColor=none;" parent="YvY0g-OzoP-tnaIa6x7b-35" vertex="1">
          <mxGeometry x="637" y="142" width="30" height="30" as="geometry" />
        </mxCell>
        <mxCell id="YvY0g-OzoP-tnaIa6x7b-24" value="&lt;span style=&quot;color: rgb(0, 0, 0); font-family: Helvetica; font-size: 12px; font-style: normal; font-variant-ligatures: normal; font-variant-caps: normal; font-weight: 400; letter-spacing: normal; orphans: 2; text-align: center; text-indent: 0px; text-transform: none; widows: 2; word-spacing: 0px; -webkit-text-stroke-width: 0px; white-space: nowrap; background-color: rgb(236, 236, 236); text-decoration-thickness: initial; text-decoration-style: initial; text-decoration-color: initial; display: inline !important; float: none;&quot;&gt;输入：伴奏总输入&lt;/span&gt;" style="text;whiteSpace=wrap;html=1;" parent="YvY0g-OzoP-tnaIa6x7b-35" vertex="1">
          <mxGeometry x="145" y="316" width="130" height="42" as="geometry" />
        </mxCell>
        <mxCell id="YvY0g-OzoP-tnaIa6x7b-25" value="&lt;span style=&quot;color: rgb(0, 0, 0); font-family: Helvetica; font-size: 12px; font-style: normal; font-variant-ligatures: normal; font-variant-caps: normal; font-weight: 400; letter-spacing: normal; orphans: 2; text-align: center; text-indent: 0px; text-transform: none; widows: 2; word-spacing: 0px; -webkit-text-stroke-width: 0px; white-space: nowrap; background-color: rgb(236, 236, 236); text-decoration-thickness: initial; text-decoration-style: initial; text-decoration-color: initial; float: none; display: inline !important;&quot;&gt;输出：总输出&lt;/span&gt;" style="text;whiteSpace=wrap;html=1;" parent="YvY0g-OzoP-tnaIa6x7b-35" vertex="1">
          <mxGeometry x="152" y="380" width="90" height="40" as="geometry" />
        </mxCell>
        <mxCell id="YvY0g-OzoP-tnaIa6x7b-26" style="edgeStyle=orthogonalEdgeStyle;rounded=0;orthogonalLoop=1;jettySize=auto;html=1;entryX=0.997;entryY=0.33;entryDx=0;entryDy=0;entryPerimeter=0;" parent="YvY0g-OzoP-tnaIa6x7b-35" source="YvY0g-OzoP-tnaIa6x7b-15" target="YvY0g-OzoP-tnaIa6x7b-14" edge="1">
          <mxGeometry relative="1" as="geometry" />
        </mxCell>
        <mxCell id="YvY0g-OzoP-tnaIa6x7b-27" style="edgeStyle=orthogonalEdgeStyle;rounded=0;orthogonalLoop=1;jettySize=auto;html=1;exitX=1;exitY=0.5;exitDx=0;exitDy=0;entryX=1.033;entryY=0.627;entryDx=0;entryDy=0;entryPerimeter=0;" parent="YvY0g-OzoP-tnaIa6x7b-35" source="YvY0g-OzoP-tnaIa6x7b-25" target="YvY0g-OzoP-tnaIa6x7b-22" edge="1">
          <mxGeometry relative="1" as="geometry" />
        </mxCell>
        <mxCell id="YvY0g-OzoP-tnaIa6x7b-28" value="直播APP-TT" style="rounded=0;whiteSpace=wrap;html=1;" parent="YvY0g-OzoP-tnaIa6x7b-35" vertex="1">
          <mxGeometry x="712" y="257" width="120" height="60" as="geometry" />
        </mxCell>
        <mxCell id="YvY0g-OzoP-tnaIa6x7b-29" value="输入：单独的loopback-Studio one输出" style="text;html=1;align=center;verticalAlign=middle;resizable=0;points=[];autosize=1;strokeColor=none;fillColor=none;" parent="YvY0g-OzoP-tnaIa6x7b-35" vertex="1">
          <mxGeometry x="702" y="200" width="230" height="30" as="geometry" />
        </mxCell>
        <mxCell id="YvY0g-OzoP-tnaIa6x7b-30" value="" style="edgeStyle=orthogonalEdgeStyle;rounded=0;orthogonalLoop=1;jettySize=auto;html=1;" parent="YvY0g-OzoP-tnaIa6x7b-35" source="YvY0g-OzoP-tnaIa6x7b-31" target="YvY0g-OzoP-tnaIa6x7b-33" edge="1">
          <mxGeometry relative="1" as="geometry" />
        </mxCell>
        <mxCell id="YvY0g-OzoP-tnaIa6x7b-31" value="苹果系统声音" style="rounded=0;whiteSpace=wrap;html=1;" parent="YvY0g-OzoP-tnaIa6x7b-35" vertex="1">
          <mxGeometry x="266" y="430" width="120" height="60" as="geometry" />
        </mxCell>
        <mxCell id="YvY0g-OzoP-tnaIa6x7b-32" value="输入studio one输出" style="rounded=1;whiteSpace=wrap;html=1;" parent="YvY0g-OzoP-tnaIa6x7b-35" vertex="1">
          <mxGeometry x="152" y="430" width="120" height="60" as="geometry" />
        </mxCell>
        <mxCell id="YvY0g-OzoP-tnaIa6x7b-33" value="输出是声卡" style="whiteSpace=wrap;html=1;rounded=0;" parent="YvY0g-OzoP-tnaIa6x7b-35" vertex="1">
          <mxGeometry x="466" y="430" width="120" height="60" as="geometry" />
        </mxCell>
        <mxCell id="YvY0g-OzoP-tnaIa6x7b-34" value="输出：声卡" style="text;html=1;align=center;verticalAlign=middle;resizable=0;points=[];autosize=1;strokeColor=none;fillColor=none;" parent="YvY0g-OzoP-tnaIa6x7b-35" vertex="1">
          <mxGeometry x="702" y="226" width="80" height="30" as="geometry" />
        </mxCell>
      </root>
    </mxGraphModel>
  </diagram>
  <diagram id="F_WlF-dOEUZKodBVORpw" name="Page-2">
    <mxGraphModel grid="1" page="1" gridSize="10" guides="1" tooltips="1" connect="1" arrows="1" fold="1" pageScale="1" pageWidth="850" pageHeight="1100" math="0" shadow="0">
      <root>
        <mxCell id="0" />
        <mxCell id="1" parent="0" />
      </root>
    </mxGraphModel>
  </diagram>
</mxfile>
